<svg width="25" height="24" viewBox="0 0 25 24" fill="none" xmlns="http://www.w3.org/2000/svg">
<path d="M4.15332 7C4.15332 6.73478 4.25868 6.48043 4.44621 6.29289C4.63375 6.10536 4.8881 6 5.15332 6H19.1533C19.4185 6 19.6729 6.10536 19.8604 6.29289C20.048 6.48043 20.1533 6.73478 20.1533 7C20.1533 7.26522 20.048 7.51957 19.8604 7.70711C19.6729 7.89464 19.4185 8 19.1533 8H5.15332C4.8881 8 4.63375 7.89464 4.44621 7.70711C4.25868 7.51957 4.15332 7.26522 4.15332 7ZM4.15332 12C4.15332 11.7348 4.25868 11.4804 4.44621 11.2929C4.63375 11.1054 4.8881 11 5.15332 11H19.1533C19.4185 11 19.6729 11.1054 19.8604 11.2929C20.048 11.4804 20.1533 11.7348 20.1533 12C20.1533 12.2652 20.048 12.5196 19.8604 12.7071C19.6729 12.8946 19.4185 13 19.1533 13H5.15332C4.8881 13 4.63375 12.8946 4.44621 12.7071C4.25868 12.5196 4.15332 12.2652 4.15332 12ZM4.15332 17C4.15332 16.7348 4.25868 16.4804 4.44621 16.2929C4.63375 16.1054 4.8881 16 5.15332 16H19.1533C19.4185 16 19.6729 16.1054 19.8604 16.2929C20.048 16.4804 20.1533 16.7348 20.1533 17C20.1533 17.2652 20.048 17.5196 19.8604 17.7071C19.6729 17.8946 19.4185 18 19.1533 18H5.15332C4.8881 18 4.63375 17.8946 4.44621 17.7071C4.25868 17.5196 4.15332 17.2652 4.15332 17Z" fill="white"/>
</svg>
